<svg xmlns="http://www.w3.org/2000/svg" width="1024" height="1024" viewBox="0 0 1024 1024">
  <g>
    <path d="M 527.71 671.49 C526.01,682.78 525.08,686.52 523.97,686.65 C522.17,686.85 519.08,685.96 450.62,665.40 C420.44,656.34 395.66,649.05 395.54,649.21 C395.43,649.37 394.76,652.20 394.05,655.50 C392.25,663.88 387.84,672.13 382.90,676.36 C377.10,681.32 369.91,683.23 356.50,683.38 C346.21,683.49 345.20,683.32 340.87,680.78 C326.80,672.51 317.57,653.75 316.35,631.00 C315.81,621.02 316.43,616.25 319.53,606.25 C320.11,604.39 319.85,604.00 318.07,604.00 C311.80,604.00 307.00,610.54 307.00,619.09 C307.00,619.55 307.03,619.97 307.05,620.34 C307.10,621.18 307.14,621.79 306.85,622.13 C306.05,623.08 302.74,621.89 290.28,617.42 C288.27,616.69 286.02,615.89 283.50,614.99 C254.79,604.74 235.98,597.30 233.78,595.30 C230.82,592.62 229.54,589.66 225.14,575.35 C216.85,548.35 213.00,519.20 213.00,483.56 C213.01,448.92 219.18,400.68 225.42,386.59 C228.50,379.61 236.49,371.00 245.00,365.47 C264.77,352.63 304.21,336.37 336.92,327.59 C371.05,318.42 385.98,316.00 412.50,315.32 C443.69,314.51 463.32,317.68 481.77,326.50 C497.49,334.01 507.46,342.02 513.42,351.91 C519.97,362.78 524.93,382.97 528.43,413.00 C534.41,464.38 536.24,495.76 536.31,548.00 C536.36,593.43 533.67,632.05 527.71,671.49 ZM 716.76 725.01 C705.92,731.62 691.89,718.85 697.37,707.35 C698.63,704.72 699.00,700.86 699.00,690.53 C699.00,678.63 698.80,677.08 697.25,676.62 C696.29,676.34 685.15,674.49 672.50,672.51 C642.18,667.77 619.80,664.05 618.25,663.50 C617.42,663.21 618.53,660.70 621.60,655.94 C630.82,641.70 640.35,617.23 643.89,598.74 C644.97,593.11 646.63,580.62 647.58,571.00 C649.53,551.22 650.51,548.54 657.35,544.54 C661.04,542.37 673.68,539.11 694.25,535.01 C701.19,533.62 701.90,532.46 695.25,533.39 C692.64,533.75 683.30,534.95 674.50,536.06 C654.93,538.52 653.05,539.09 648.59,544.03 C644.41,548.66 644.47,548.45 642.52,566.88 C639.90,591.64 633.74,614.91 624.43,635.25 C618.66,647.85 610.48,661.67 608.01,662.99 C606.06,664.04 561.58,680.46 544.02,686.62 C538.81,688.45 534.24,689.62 533.86,689.22 C533.48,688.83 534.26,681.08 535.59,672.00 C539.56,644.96 542.90,606.64 544.04,575.11 C545.58,532.59 542.70,470.00 537.00,421.84 C533.79,394.79 530.09,372.39 527.43,363.95 C523.19,350.55 512.04,336.23 498.78,327.17 C486.17,318.56 462.90,311.16 443.09,309.48 C436.17,308.89 435.01,308.56 436.59,307.63 C437.91,306.85 449.00,306.51 472.75,306.54 L 507.00 306.57 L 507.00 304.23 C507.00,302.48 507.93,301.51 510.72,300.34 C518.53,297.08 540.46,296.94 551.00,300.08 C560.88,303.03 563.17,305.01 564.21,311.49 C564.46,313.11 565.82,313.70 571.51,314.69 C590.76,318.04 598.24,319.60 618.75,324.56 C630.99,327.52 648.99,332.61 658.75,335.87 C708.44,352.48 721.92,363.31 730.52,393.50 C740.60,428.90 745.15,465.12 744.96,508.51 L 744.86 531.60 L 748.45 535.52 C750.43,537.67 752.49,541.12 753.05,543.17 C754.63,549.06 751.49,651.30 749.61,655.07 L 748.18 657.94 L 758.34 663.30 C775.58,672.39 787.06,678.00 788.45,678.00 C789.17,678.00 790.50,676.88 791.39,675.52 C794.05,671.47 798.36,669.75 802.83,670.95 C811.03,673.16 814.51,681.87 809.54,687.77 C805.93,692.06 801.69,693.06 791.70,691.98 C783.55,691.11 713.13,679.43 709.71,678.39 C708.07,677.88 707.95,678.65 708.21,688.16 L 708.50 698.47 L 712.16 699.06 C717.14,699.87 720.38,702.18 722.35,706.33 C725.69,713.36 723.41,720.95 716.76,725.01 ZM 628.60 475.75 C632.61,479.82 634.00,479.85 661.20,476.49 C672.37,475.11 686.59,473.35 692.82,472.58 C704.96,471.09 707.42,469.91 708.48,465.09 C708.83,463.51 706.73,450.52 703.44,433.94 C697.19,402.34 695.76,398.54 689.77,397.57 C685.68,396.91 638.73,392.99 626.23,392.26 C618.09,391.79 616.71,391.96 614.87,393.61 C613.04,395.27 612.85,396.23 613.39,401.50 C613.73,404.80 614.85,412.00 615.88,417.50 C616.91,423.00 619.48,437.62 621.58,450.00 C625.28,471.74 625.52,472.61 628.60,475.75 ZM 312.66 465.06 C319.72,465.37 331.72,465.70 339.33,465.81 L 353.15 466.00 L 355.98 463.17 C359.29,459.86 359.46,458.73 361.00,430.00 C361.57,419.27 362.21,408.24 362.42,405.48 C362.91,399.17 360.97,394.28 357.66,393.45 C355.52,392.91 309.34,397.24 303.26,398.55 C299.05,399.46 298.16,402.56 297.07,420.00 C296.86,423.43 296.66,426.55 296.48,429.40 C294.85,455.40 294.66,458.38 296.03,460.16 C296.35,460.59 296.77,460.95 297.27,461.53 C299.79,464.47 299.96,464.51 312.66,465.06 ZM 254.66 463.07 C262.27,463.38 270.66,463.72 273.30,463.82 C278.50,464.02 283.37,462.07 284.40,459.39 C284.76,458.47 285.47,449.57 286.00,439.61 C286.52,429.65 287.21,418.50 287.53,414.84 C287.94,410.07 287.68,407.16 286.60,404.59 C285.10,401.01 285.09,401.00 278.80,401.01 C270.20,401.02 246.11,403.75 242.84,405.09 C241.37,405.68 239.71,407.37 239.14,408.84 C238.58,410.30 237.81,420.95 237.44,432.50 C237.07,444.05 236.62,454.29 236.44,455.26 C236.26,456.23 237.17,458.25 238.47,459.76 C240.77,462.44 241.13,462.51 254.66,463.07 ZM 455.34 650.23 C457.14,651.38 459.00,651.13 458.98,649.75 C458.97,649.06 458.54,645.58 458.02,642.00 C457.50,638.42 455.85,622.90 454.35,607.50 C451.73,580.59 451.62,577.22 451.63,521.00 C451.63,473.30 451.96,458.71 453.41,442.00 C455.97,412.57 455.79,400.68 452.65,389.63 C447.06,369.99 435.32,360.81 417.63,362.24 C404.51,363.31 392.41,372.93 385.26,388.02 C380.17,398.74 378.50,405.76 376.57,424.50 C373.59,453.57 372.74,471.86 372.71,507.50 C372.67,543.97 373.59,559.23 377.64,589.75 C379.35,602.57 381.15,606.95 379.89,595.23 C374.30,542.84 376.63,435.80 384.04,405.50 C389.81,381.85 403.49,367.82 420.77,367.82 C425.85,367.82 428.84,368.39 431.82,369.91 C436.84,372.47 442.25,379.37 445.00,386.72 C449.04,397.53 449.40,404.18 447.59,435.00 C445.25,474.90 444.49,533.06 445.91,563.50 C447.59,599.37 452.95,648.71 455.34,650.23 ZM 404.37 454.08 C409.83,457.41 415.95,455.92 421.70,449.87 C434.37,436.51 435.36,406.10 423.52,394.26 C420.06,390.79 418.58,390.00 415.59,390.00 C410.80,390.00 404.75,393.15 401.60,397.28 C388.30,414.71 389.79,445.19 404.37,454.08 ZM 341.50 664.89 C342.60,665.53 345.52,665.86 348.00,665.62 C351.68,665.27 353.08,664.51 355.71,661.48 C360.54,655.88 362.52,649.10 362.40,638.50 C362.29,628.13 360.60,623.82 354.33,617.85 C349.47,613.22 338.68,607.79 335.16,608.19 C333.03,608.44 331.91,609.67 329.55,614.40 C321.47,630.57 327.70,656.88 341.50,664.89 ZM 353.08 645.84 C350.45,651.00 347.24,652.36 342.86,650.18 C335.59,646.55 332.68,633.66 337.29,625.50 C339.30,621.94 340.02,621.47 343.77,621.19 C347.22,620.94 348.41,621.34 350.33,623.41 C355.08,628.53 356.40,639.33 353.08,645.84 ZM 741.75 673.71 C768.57,678.15 768.68,678.12 754.25,670.49 L 742.00 664.01 L 734.58 666.51 C730.49,667.88 726.21,669.00 725.07,669.00 C723.93,669.00 723.00,669.36 723.00,669.81 C723.00,670.25 731.44,672.01 741.75,673.71 ZM 705.00 532.00 C705.00,532.55 705.42,533.00 705.94,533.00 C706.46,533.00 707.16,532.55 707.50,532.00 C707.84,531.45 707.42,531.00 706.56,531.00 C705.70,531.00 705.00,531.45 705.00,532.00 Z"
      fill="rgb(2,2,3)" />
    <path d="M 470.55 306.50 L 507.00 306.51 L 507.00 306.57 L 472.75 306.54 C449.00,306.51 437.91,306.85 436.59,307.63 C435.01,308.56 436.17,308.89 443.09,309.48 C446.90,309.80 450.85,310.34 454.82,311.06 C450.44,310.29 446.05,309.75 441.69,309.43 C434.51,308.91 432.18,308.42 432.99,307.61 C433.76,306.84 445.20,306.50 470.55,306.50 ZM 705.00 532.00 C705.00,531.45 705.70,531.00 706.56,531.00 C707.42,531.00 707.84,531.45 707.50,532.00 C707.16,532.55 706.46,533.00 705.94,533.00 C705.42,533.00 705.00,532.55 705.00,532.00 ZM 480.44 318.08 C487.58,320.76 493.96,323.88 498.78,327.17 C502.72,329.86 506.47,333.02 509.92,336.48 C503.44,330.09 495.76,324.71 487.54,321.02 C485.21,319.97 482.84,318.99 480.44,318.08 ZM 540.50 298.25 C533.08,297.56 524.53,297.68 518.05,298.59 C519.51,298.37 521.11,298.18 522.86,298.02 C528.72,297.49 534.85,297.62 540.50,298.25 ZM 562.96 307.11 C562.43,306.02 561.72,305.12 560.74,304.31 C561.80,305.12 562.53,305.98 562.87,306.87 C562.90,306.95 562.93,307.03 562.96,307.11 Z"
      fill="rgb(107,108,104)" />
    <path d="M 470.55 306.50 C459.86,306.50 451.65,306.56 445.66,306.69 C459.02,306.21 477.80,306.05 489.07,306.50 L 489.13 306.51 ZM 430.00 307.97 C430.00,307.74 431.49,307.51 434.04,307.29 C433.45,307.39 433.11,307.49 432.99,307.61 C432.18,308.42 434.51,308.91 441.69,309.43 C446.05,309.75 450.44,310.29 454.82,311.06 C455.26,311.13 455.69,311.21 456.13,311.30 C451.00,310.37 445.82,309.73 440.62,309.39 C434.78,309.01 430.00,308.38 430.00,307.97 ZM 507.38 302.64 C507.86,301.75 508.85,301.13 510.72,300.34 C508.91,301.10 507.88,301.78 507.38,302.64 Z"
      fill="rgb(131,131,131)" />
  </g>
</svg>
